HIERARCHY
ROOT pelvis
{
  OFFSET 0 100 0
  CHANNELS 6 Xposition Yposition Zposition Zrotation Xrotation Yrotation
  JOINT pelvis_right_femur
  {
    OFFSET -10.78128 -3.44521 -0.5502486
    CHANNELS 3 Zrotation Xrotation Yrotation
    JOINT right_femur_tibia
    {
      OFFSET -0.8047443 -44.0398 -0.1307829
      CHANNELS 3 Zrotation Xrotation Yrotation
      JOINT right_tibia_foot
      {
        OFFSET 3.006224 -47.83518 -5
        CHANNELS 3 Zrotation Xrotation Yrotation
        End Site
        {
          OFFSET 0 -5 15
        }
      }
    }
  }
  JOINT pelvis_left_femur
  {
    OFFSET 10.78128 -3.44521 -0.5502486
    CHANNELS 3 Zrotation Xrotation Yrotation
    JOINT left_femur_tibia
    {
      OFFSET 0.8047443 -44.0398 -0.1307829
      CHANNELS 3 Zrotation Xrotation Yrotation
      JOINT left_tibia_foot
      {
        OFFSET -4.370144 -48.10324 -4.275266
        CHANNELS 3 Zrotation Xrotation Yrotation
        End Site
        {
          OFFSET 0 -5 15
        }
      }
    }
  }
  JOINT pelvis_spine1
  {
    OFFSET 0 6.468898 -3.129235
    CHANNELS 3 Zrotation Xrotation Yrotation
    JOINT spine1
    {
      OFFSET 0 23.15396 4.99043
      CHANNELS 3 Zrotation Xrotation Yrotation
      JOINT spine2
      {
        OFFSET 0 20.79997 -5.064912
        CHANNELS 3 Zrotation Xrotation Yrotation
        JOINT neck
        {
          OFFSET 0 14.38658 9.616178
          CHANNELS 3 Zrotation Xrotation Yrotation
          End Site
          {
            OFFSET 0 20 0
          }
        }
      }
      JOINT right_manubrium
      {
        OFFSET -5.722621 16.35077 3.967754
        CHANNELS 3 Zrotation Xrotation Yrotation
        JOINT right_clavicle
        {
          OFFSET -13.16364 1.694482 -4.693211
          CHANNELS 3 Zrotation Xrotation Yrotation
          JOINT right_humerus
          {
            OFFSET -28.5034 -0.3100689 -2.792744
            CHANNELS 3 Zrotation Xrotation Yrotation
            JOINT right_radius
            {
              OFFSET -25.15693 0.02248979 -1.271978
              CHANNELS 3 Zrotation Xrotation Yrotation
              End Site
              {
                OFFSET -15 0 0
              }
            }
          }
        }
      }
      JOINT left_manubrium
      {
        OFFSET 5.722621 16.35077 3.967754
        CHANNELS 3 Zrotation Xrotation Yrotation
        JOINT left_clavicle
        {
          OFFSET 13.16364 1.694482 -4.693211
          CHANNELS 3 Zrotation Xrotation Yrotation
          JOINT left_humerus
          {
            OFFSET 29.39168 -1.063119 -2.237045
            CHANNELS 3 Zrotation Xrotation Yrotation
            JOINT left_radius
            {
              OFFSET 24.59957 -0.9528479 0.9047498
              CHANNELS 3 Zrotation Xrotation Yrotation
              End Site
              {
                OFFSET 15 -0 -0
              }
            }
          }
        }
      }
    }
  }
}
MOTION
Frames: 11
Frame Time: 0.0416666666667
0 103.5113 0 1.535297 0.0327903 0.0945236 3.638098 -17.95944 10.4869 -0 38.32827 -0 -5.170141 -16.67432 -3.098665 -7.990006 9.93969 -23.00796 -0 5.255997 -0 18.25056 -11.15206 29.2001 -4.216075 -3.687189 5.060138 2.914388 10.20775 -7.300349 1.712433 22.21071 6.097112 2.001262 -25.64587 10.11206 6.053717 -20.75889 11.91196 86.52757 37.76161 -18.03785 -0 0 14.80966 -5.8988 7.851391 5.655535 3.887128 -18.16524 -2.742172 -90.79416 22.38817 19.80455 0 0 -17.10729 15.16791 12.94831 -2.18878
0.2755665 103.5669 1.739789 1.516728 0.09705158 0.1906717 3.771645 -18.69679 10.36737 -0 38.39796 -0 -5.638477 -15.00433 -2.835069 -8.022287 9.844154 -22.73801 -0 5.383141 -0 19.0043 -10.71048 29.28312 -4.235517 -3.511096 5.014414 2.827055 10.48525 -7.208105 1.795441 22.09266 6.12824 2.19393 -25.64099 10.06402 6.113677 -20.74353 11.99531 86.70129 38.03782 -17.96841 -0 0 14.40264 -6.178207 8.006958 6.031847 3.852197 -18.32994 -3.027409 -90.32456 21.95137 19.29622 0 0 -17.67425 15.79382 12.44349 -2.728156
0.5207068 103.505 2.770624 1.837658 0.4500076 0.2459017 3.124638 -15.20424 11.80081 -0 37.35224 -0 -2.334206 -26.21194 -3.778112 -8.06672 10.59709 -25.65354 -0 4.530096 -0 15.5069 -13.00592 29.97653 -4.068692 -4.785819 5.854876 2.801854 8.316562 -7.196759 1.780981 22.58314 6.192883 1.371737 -25.46976 11.16009 5.940795 -20.50745 11.13076 85.61674 38.60013 -18.0717 -0 0 17.75357 -3.843415 8.167941 2.472507 4.684524 -17.02714 -0.7931859 -92.92205 24.2495 21.66508 0 0 -15.06014 13.71176 15.46616 -1.43408
0.7430623 103.505 3.392456 1.795666 0.7632244 0.3323254 2.808975 -12.71293 12.80765 -0 38.29387 -0 -0.5452506 -32.1873 -4.125375 -7.9635 10.90382 -27.6414 -0 4.365087 -0 11.67744 -15.43741 30.2452 -3.784717 -5.73672 6.389372 2.531663 6.778334 -7.145001 1.813782 22.85318 6.479076 1.122127 -25.43954 12.00612 5.906139 -20.13875 10.46979 84.95168 38.79492 -18.35121 -0 0 19.94025 -2.555997 8.59212 -0.1396015 5.625595 -16.49724 1.119125 -95.511 26.61026 24.03336 0 0 -12.9142 11.38484 18.48767 0.6620763
0.9356716 103.6438 3.798127 1.523928 1.211094 0.461643 2.969465 -11.73055 13.60854 -0 39.74992 -0 0.2610484 -34.82189 -4.299183 -7.785894 11.12394 -28.99089 -0 4.622697 -0 8.355418 -17.68425 30.3487 -3.433059 -6.303375 6.744383 2.171098 5.680298 -7.070266 1.895804 22.87543 6.894571 1.265448 -25.55054 12.68867 6.028268 -19.72784 9.992292 84.65879 39.27035 -18.785 -0 0 21.32851 -1.646016 9.161961 -2.190889 6.549379 -16.40875 2.648703 -97.80151 28.80261 26.09382 0 0 -11.67803 9.248486 20.94033 2.939817
1.101479 103.9416 4.163228 1.028687 1.691919 0.6317608 3.575142 -12.23342 14.09896 -0 41.10114 -0 0.1171472 -34.6014 -4.491716 -7.48834 11.28332 -29.54136 -0 5.145962 -0 5.659777 -19.62516 30.13178 -3.044717 -6.442814 6.846024 1.884882 5.090967 -7.074232 1.954868 22.69238 7.325622 1.657877 -25.80572 13.07854 6.257248 -19.3752 9.74944 84.63485 39.68964 -19.32024 -0 0 21.90921 -1.17624 9.678331 -3.438053 7.322323 -16.71838 3.662799 -99.62066 30.59181 27.73202 0 0 -11.19259 7.353096 22.62082 5.251114
1.249341 104.3712 4.626401 0.3845585 2.176801 0.8246753 4.5029 -13.9721 14.29102 -0 41.80848 -0 -0.6858729 -32.37099 -4.672729 -7.091955 11.43086 -29.38777 -0 5.79882 -0 3.562785 -21.24861 29.58174 -2.662 -6.209624 6.721599 1.736612 4.916145 -7.168612 1.978005 22.36438 7.71257 2.181091 -26.17485 13.19395 6.527419 -19.09502 9.699428 84.7768 39.94955 -19.90126 -0 0 21.84276 -1.094527 10.06865 -3.928693 7.907173 -17.30136 4.192223 -100.9024 31.95217 28.87929 0 0 -11.29377 5.731392 23.54475 7.442495
1.390083 104.8734 5.301785 -0.3400526 2.655919 1.019517 5.628916 -16.71308 14.20565 -0 41.52466 -0 -1.877695 -28.76207 -4.745701 -6.625269 11.60768 -28.63831 -0 6.502507 -0 1.965426 -22.59571 28.68918 -2.310784 -5.663309 6.410257 1.740229 5.047635 -7.338516 1.970263 21.94131 8.029414 2.758505 -26.6238 13.08276 6.778275 -18.86693 9.788114 85.02015 40.00106 -20.48824 -0 0 21.26956 -1.360382 10.31742 -3.763094 8.303252 -18.05781 4.294906 -101.6148 32.92172 29.48452 0 0 -11.8669 4.39958 23.79591 9.409868
1.532151 105.3665 6.289941 -1.078228 3.121068 1.200519 6.827218 -20.23976 13.84265 -0 40.0068 -0 -3.247651 -24.26731 -4.632149 -6.120899 11.85959 -27.38961 -0 7.220755 -0 0.7601232 -23.70977 27.43243 -2.008352 -4.856641 5.950174 1.886541 5.379744 -7.556547 1.942891 21.46991 8.264915 3.332709 -27.11227 12.79924 6.949245 -18.65576 9.961767 85.33642 39.81814 -21.05371 -0 0 20.29402 -1.940597 10.43017 -3.053471 8.513666 -18.89961 4.02067 -101.7292 33.55436 29.49331 0 0 -12.85274 3.36536 23.46342 11.07734
1.678352 105.7503 7.687011 -1.756471 3.54529 1.36155 7.94393 -24.30947 13.14826 -0 37.06107 -0 -4.641507 -19.30419 -4.297336 -5.61507 12.23558 -25.71585 -0 7.939234 -0 -0.1433101 -24.60538 25.7719 -1.77198 -3.840362 5.371251 2.157584 5.820121 -7.790267 1.906973 21.0056 8.407018 3.846777 -27.58551 12.38885 6.969893 -18.42176 10.17156 85.72247 39.34922 -21.57359 -0 0 18.97517 -2.826849 10.41373 -1.888578 8.529765 -19.74322 3.394557 -101.1945 33.87976 28.82625 0 0 -14.22278 2.639771 22.62377 12.36767
1.823482 105.9102 9.589643 -2.285333 3.865985 1.509668 8.760537 -28.57111 11.99296 -0 32.56804 -0 -5.926775 -14.29715 -3.755824 -5.15006 12.78334 -23.68648 -0 8.65166 -0 -0.8200921 -25.2561 23.66639 -1.621958 -2.683494 4.698878 2.524559 6.286047 -8.001678 1.872331 20.62599 8.435817 4.231806 -27.96094 11.88772 6.752659 -18.12319 10.3702 86.19386 38.49043 -22.02224 -0 0 17.3345 -4.038223 10.27176 -0.3375935 8.33308 -20.50056 2.424527 -99.94403 33.8882 27.38501 0 0 -15.9469 2.237503 21.36278 13.18761
